<svg width="45" height="20" viewBox="0 0 45 20" fill="none" xmlns="http://www.w3.org/2000/svg">
<g opacity="0.8">
<path d="M6.94105 3.18108C6.71733 1.56531 5.47443 0.627808 3.86222 0.627808C1.96236 0.627808 0.53125 2.01275 0.53125 4.3636C0.53125 6.7109 1.9446 8.0994 3.86222 8.0994C5.59162 8.0994 6.73864 6.98079 6.94105 5.5923L5.61293 5.58519C5.44602 6.43747 4.75 6.91687 3.87997 6.91687C2.70099 6.91687 1.85582 6.03264 1.85582 4.3636C1.85582 2.72298 2.69389 1.81034 3.88352 1.81034C4.76776 1.81034 5.46023 2.31105 5.61293 3.18108H6.94105Z" fill="#E8F1E8"/>
<path d="M11.7159 11H16.2365V9.89556H13.0334V3.72724H11.7159V11Z" fill="#E8F1E8"/>
<path d="M23.0334 6.72724H21.7159V14H23.0334V6.72724Z" fill="#E8F1E8"/>
<path d="M33.9411 12.1811C33.7173 10.5653 32.4744 9.62781 30.8622 9.62781C28.9624 9.62781 27.5312 11.0128 27.5312 13.3636C27.5312 15.7109 28.9446 17.0994 30.8622 17.0994C32.5916 17.0994 33.7386 15.9808 33.9411 14.5923L32.6129 14.5852C32.446 15.4375 31.75 15.9169 30.88 15.9169C29.701 15.9169 28.8558 15.0326 28.8558 13.3636C28.8558 11.723 29.6939 10.8103 30.8835 10.8103C31.7678 10.8103 32.4602 11.311 32.6129 12.1811H33.9411Z" fill="#E8F1E8"/>
<path d="M38.7159 20H40.0334V17.8338L40.8395 16.8821L43.0092 20H44.593L41.7557 15.9907L44.5682 12.7272H42.9595L40.1222 16.0689H40.0334V12.7272H38.7159V20Z" fill="#E8F1E8"/>
</g>
</svg>
