<svg width="40" height="40" viewBox="0 0 40 40" fill="none" xmlns="http://www.w3.org/2000/svg">
<g clip-path="url(#clip0)">
<path d="M20 10.163C23.204 10.163 23.584 10.175 24.85 10.233C28.102 10.381 29.621 11.924 29.769 15.152C29.827 16.417 29.838 16.797 29.838 20.001C29.838 23.206 29.826 23.585 29.769 24.85C29.62 28.075 28.105 29.621 24.85 29.769C23.584 29.827 23.206 29.839 20 29.839C16.796 29.839 16.416 29.827 15.151 29.769C11.891 29.62 10.38 28.07 10.232 24.849C10.174 23.584 10.162 23.205 10.162 20C10.162 16.796 10.175 16.417 10.232 15.151C10.381 11.924 11.896 10.38 15.151 10.232C16.417 10.175 16.796 10.163 20 10.163V10.163ZM20 8C16.741 8 16.333 8.014 15.053 8.072C10.695 8.272 8.273 10.69 8.073 15.052C8.014 16.333 8 16.741 8 20C8 23.259 8.014 23.668 8.072 24.948C8.272 29.306 10.69 31.728 15.052 31.928C16.333 31.986 16.741 32 20 32C23.259 32 23.668 31.986 24.948 31.928C29.302 31.728 31.73 29.31 31.927 24.948C31.986 23.668 32 23.259 32 20C32 16.741 31.986 16.333 31.928 15.053C31.732 10.699 29.311 8.273 24.949 8.073C23.668 8.014 23.259 8 20 8V8ZM20 13.838C16.597 13.838 13.838 16.597 13.838 20C13.838 23.403 16.597 26.163 20 26.163C23.403 26.163 26.162 23.404 26.162 20C26.162 16.597 23.403 13.838 20 13.838ZM20 24C17.791 24 16 22.21 16 20C16 17.791 17.791 16 20 16C22.209 16 24 17.791 24 20C24 22.21 22.209 24 20 24ZM26.406 12.155C25.61 12.155 24.965 12.8 24.965 13.595C24.965 14.39 25.61 15.035 26.406 15.035C27.201 15.035 27.845 14.39 27.845 13.595C27.845 12.8 27.201 12.155 26.406 12.155Z" fill="#181F15"/>
</g>
<defs>
<clipPath id="clip0">
<rect x="8" y="8" width="24" height="24" fill="white"/>
</clipPath>
</defs>
</svg>
